# xmcd
#
# Track frame offsets: 
#        150
#        17089
#        31630
#        44057
#        60878
#        74087
#        85757
#        98095
#        110334
#        124238
#        138402
#        154725
#
# Disc length: 2281 seconds
#
# Revision: 0
# Processed by: cddbd v1.5.2PL0 Copyright (c) Steve Scherf et al.
# Submitted via: ExactAudioCopyFreeDBPlugin 1.0
#
DISCID=9a08e70c
DTITLE=Tiny Legs Tim - Melodium Rag
DYEAR=2016
DGENRE=Blues
TTITLE0=Religions Serve The Devil Well
TTITLE1=Hard To Admit
TTITLE2=Death Letter
TTITLE3=Love Is Worth A Fight
TTITLE4=Evil
TTITLE5=Melodium Rag
TTITLE6=Hardcore Blues
TTITLE7=Little Bit Of Lovin'
TTITLE8=Happiest Man In Town
TTITLE9=Second Round
TTITLE10=Down ToThis
TTITLE11=Victory
EXTD=
EXTT0=
EXTT1=
EXTT2=
EXTT3=
EXTT4=
EXTT5=
EXTT6=
EXTT7=
EXTT8=
EXTT9=
EXTT10=
EXTT11=
PLAYORDER=
